USFL
nRows=153
nColumns=2
inDegrees=yes
endheader
time	med_gas_r	
2.25	 49.998605	
2.3125	 49.810666	
2.375	 49.772405	
2.4375	 49.763353	
2.5	 49.828901	
2.5625	 49.852918	
2.625	 49.806002	
2.6875	 49.718990	
2.75	 49.748088	
2.8125	 49.748837	
2.875	 49.693648	
2.9375	 49.657997	
3	 49.652013	
3.0625	 49.686412	
3.125	 49.654501	
3.1875	 49.641481	
3.25	 49.530709	
3.3125	 49.453773	
3.375	 49.381680	
3.4375	 49.152739	
3.5	 48.948973	
3.5625	 49.018628	
3.625	 49.105185	
3.6875	 49.077161	
3.75	 49.140590	
3.8125	 49.229431	
3.875	 49.365125	
3.9375	 49.424205	
4	 49.482366	
4.0625	 45.108713	
4.125	 43.750838	
4.1875	 43.793084	
4.25	 43.739398	
4.3125	 42.229361	
4.375	 42.151532	
4.4375	 39.546241	
4.5	 39.699455	
4.5625	 36.784533	
4.625	 36.737133	
4.6875	 36.622703	
4.75	 36.463771	
4.8125	 36.434096	
4.875	 35.505532	
4.9375	 34.416457	
5	 33.471647	
5.0625	 33.450165	
5.125	 33.445315	
5.1875	 33.345096	
5.25	 33.510291	
5.3125	 33.570276	
5.375	 33.534886	
5.4375	 33.428853	
5.5	 33.386613	
5.5625	 33.380822	
5.625	 33.389140	
5.6875	 34.943735	
5.75	 34.908631	
5.8125	 34.853257	
5.875	 34.831801	
5.9375	 34.764597	
6	 34.754750	
6.0625	 34.731357	
6.125	 34.883298	
6.1875	 35.456906	
6.25	 35.497216	
6.3125	 35.078842	
6.375	 34.929037	
6.4375	 35.039025	
6.5	 35.027492	
6.5625	 34.907335	
6.625	 34.990594	
6.6875	 35.682970	
6.75	 35.596227	
6.8125	 35.330324	
6.875	 35.269323	
6.9375	 35.258136	
7	 35.158771	
7.0625	 35.180990	
7.125	 35.083126	
7.1875	 34.983333	
7.25	 35.067264	
7.3125	 34.967281	
7.375	 35.009046	
7.4375	 34.993534	
7.5	 35.000523	
7.5625	 35.084761	
7.625	 35.062131	
7.6875	 35.020900	
7.75	 35.035021	
7.8125	 34.708905	
7.875	 34.737951	
7.9375	 34.721759	
8	 34.339076	
8.0625	 34.401632	
8.125	 34.391739	
8.1875	 33.513093	
8.25	 33.449562	
8.3125	 33.791467	
8.375	 33.878015	
8.4375	 33.969503	
8.5	 34.006209	
8.5625	 38.272809	
8.625	 41.358837	
8.6875	 44.990973	
8.75	 45.693429	
8.8125	 47.586939	
8.875	 47.007434	
8.9375	 47.022888	
9	 47.069210	
9.0625	 47.040165	
9.125	 47.130451	
9.1875	 47.245650	
9.25	 47.320268	
9.3125	 52.483197	
9.375	 52.592979	
9.4375	 52.781920	
9.5	 52.803794	
9.5625	 52.935269	
9.625	 52.958410	
9.6875	 52.931328	
9.75	 53.040026	
9.8125	 53.090509	
9.875	 53.009800	
9.9375	 53.003929	
10	 53.151873	
10.0625	 53.150951	
10.125	 53.124026	
10.1875	 52.968042	
10.25	 52.928581	
10.3125	 52.959617	
10.375	 53.022271	
10.4375	 53.055314	
10.5	 52.987743	
10.5625	 53.026411	
10.625	 53.010950	
10.6875	 53.201310	
10.75	 53.261201	
10.8125	 53.165497	
10.875	 53.269082	
10.9375	 53.277571	
11	 53.349039	
11.0625	 53.257059	
11.125	 53.076503	
11.1875	 53.067215	
11.25	 53.164559	
11.3125	 53.122026	
11.375	 53.090918	
11.4375	 53.065966	
11.5	 53.116431	
11.5625	 53.110542	
11.625	 53.154513	
11.6875	 53.117979	
11.75	 53.045771	
